<svg xmlns="http://www.w3.org/2000/svg" xmlns:xlink="http://www.w3.org/1999/xlink" width="16.023" height="16.012" viewBox="0 0 1418 1417">
  <defs>
    <style>
      .cls-1 {
        fill-rule: evenodd;
        fill: url(#linear-gradient);
      }
    </style>
    <linearGradient id="linear-gradient" x1="1058.808" y1="1314.38" x2="359.219" y2="102.656" gradientUnits="userSpaceOnUse">
      <stop offset="0" stop-color="#facc22"/>
      <stop offset="1" stop-color="#f83600"/>
    </linearGradient>
  </defs>
  <path id="icon2" class="cls-1" d="M508.587,102.646c0.867,26.462,15.116,61.451,35.9,68.8,44.951,15.893,123.179-7.014,148.372,27.76,16.094,22.215.773,74.773,5.983,107.422,5.5,34.48,12.837,61.68,27.52,85.7h3.59c53.765-71.307,191.006-147.646,326.662-119.492,25.25,5.243,51.59,8.486,70.59,20.519C1093,368.888,1032.85,436.484,977.634,492.5c-171.307,173.8-373.4,310.55-615.026,414-68.014,29.118-137.545,56.813-212.986,79.66-29.257,8.861-104.491,29.523-140.689,37.693,0,2.6,88.168-16.53,143.082-28.037,77.1-19.633,151.15-36.668,222.558-57.935,259.15-77.18,490.179-187.123,680.837-334.334,45.07-34.8,109.84-85.46,144.78-129.147q30.51-35.6,61.03-71.212c48.63,83.925,48.93,84.206,61.02,171.391,26.38,8.8,50.36,18.726,87.35,31.382q-43.08,12.672-86.15,25.346v1.207c19.71,8.23,33.62,14.58,61.02,26.554-29.54,5.873-40.96,7.859-71.79,14.484q-3,18.1-5.99,36.209c-14.11,73.469-33.74,134.4-58.63,194.325-82,197.477-213.94,344.187-440.326,397.1-107.774,25.19-254.965,10.65-349.392-13.28L398.5,1271.01c301.362-53.72,686.576-396.655,862.5-866.624C1133.81,652.9,709.687,1161.36,230.987,1197.38,174.03,1185.45,31.522,1074.16,8.429,1023.57q37.089-14.475,74.186-28.964C152.7,965.221,217.163,934.58,275.26,893.22l94.527-74.833-3.59-4.828c-21.831-10.432-46.15-38.144-61.024-56.728C253.2,691.894,185.8,628.954,178.339,520.262l75.383,13.277,151.962,16.9q-11.966-31.983-23.931-63.971c-9.464-30.685-11.774-65.157-11.966-101.386l67.007,24.14,147.175,39.83c15.722,4.749,69.252,24.525,80.169,20.519q1.2-3.018,2.393-6.035c-23.707-11.611-57.888-71.32-65.81-100.18-8.175-29.781-1.555-55.539-23.931-70-16.818-10.872-35.011-10.184-59.828-14.484C434.556,264.59,384.2,305.385,320.729,318.7c-47.233,9.9-99.9-72.839-93.331-107.422,8.163-10.423,30.6-25.241,44.272-28.967,18.155,32.4,26.724,87.505,67.007,96.558,32.177,7.232,61.477-15.71,82.562-24.139,66.152-26.448,186.3-32.125,221.361,26.553l3.59-2.414c-0.158-28.388,2.58-47.729-16.752-57.935-34.5-18.215-96.448.823-135.21-15.691-9.861-4.2-44.582-55.286-38.29-71.212C457.513,130.042,501.177,103.672,508.587,102.646Zm0,0c0.867,26.462,15.116,61.451,35.9,68.8,44.951,15.893,123.179-7.014,148.372,27.76,16.094,22.215.773,74.773,5.983,107.422,5.5,34.48,12.837,61.68,27.52,85.7h3.59c53.765-71.307,191.006-147.646,326.662-119.492,25.25,5.243,51.59,8.486,70.59,20.519C1093,368.888,1032.85,436.484,977.634,492.5c-171.307,173.8-373.4,310.55-615.026,414-68.014,29.118-137.545,56.813-212.986,79.66-29.257,8.861-104.491,29.523-140.689,37.693,0,2.6,88.168-16.53,143.082-28.037,77.1-19.633,151.15-36.668,222.558-57.935,259.15-77.18,490.179-187.123,680.837-334.334,45.07-34.8,109.84-85.46,144.78-129.147q30.51-35.6,61.03-71.212c48.63,83.925,48.93,84.206,61.02,171.391,26.38,8.8,50.36,18.726,87.35,31.382q-43.08,12.672-86.15,25.346v1.207c19.71,8.23,33.62,14.58,61.02,26.554-29.54,5.873-40.96,7.859-71.79,14.484q-3,18.1-5.99,36.209c-14.11,73.469-33.74,134.4-58.63,194.325-82,197.477-213.94,344.187-440.326,397.1-107.774,25.19-254.965,10.65-349.392-13.28L398.5,1271.01c301.362-53.72,686.576-396.655,862.5-866.624C1133.81,652.9,709.687,1161.36,230.987,1197.38,174.03,1185.45,31.522,1074.16,8.429,1023.57q37.089-14.475,74.186-28.964C152.7,965.221,217.163,934.58,275.26,893.22l94.527-74.833-3.59-4.828c-21.831-10.432-46.15-38.144-61.024-56.728C253.2,691.894,185.8,628.954,178.339,520.262l75.383,13.277,151.962,16.9q-11.966-31.983-23.931-63.971c-9.464-30.685-11.774-65.157-11.966-101.386l67.007,24.14,147.175,39.83c15.722,4.749,69.252,24.525,80.169,20.519q1.2-3.018,2.393-6.035c-23.707-11.611-57.888-71.32-65.81-100.18-8.175-29.781-1.555-55.539-23.931-70-16.818-10.872-35.011-10.184-59.828-14.484C434.556,264.59,384.2,305.385,320.729,318.7c-47.233,9.9-99.9-72.839-93.331-107.422,8.163-10.423,30.6-25.241,44.272-28.967,18.155,32.4,26.724,87.505,67.007,96.558,32.177,7.232,61.477-15.71,82.562-24.139,66.152-26.448,186.3-32.125,221.361,26.553l3.59-2.414c-0.158-28.388,2.58-47.729-16.752-57.935-34.5-18.215-96.448.823-135.21-15.691-9.861-4.2-44.582-55.286-38.29-71.212C457.513,130.042,501.177,103.672,508.587,102.646Zm0,0c0.867,26.462,15.116,61.451,35.9,68.8,44.951,15.893,123.179-7.014,148.372,27.76,16.094,22.215.773,74.773,5.983,107.422,5.5,34.48,12.837,61.68,27.52,85.7h3.59c53.765-71.307,191.006-147.646,326.662-119.492,25.25,5.243,51.59,8.486,70.59,20.519C1093,368.888,1032.85,436.484,977.634,492.5c-171.307,173.8-373.4,310.55-615.026,414-68.014,29.118-137.545,56.813-212.986,79.66-29.257,8.861-104.491,29.523-140.689,37.693,0,2.6,88.168-16.53,143.082-28.037,77.1-19.633,151.15-36.668,222.558-57.935,259.15-77.18,490.179-187.123,680.837-334.334,45.07-34.8,109.84-85.46,144.78-129.147q30.51-35.6,61.03-71.212c48.63,83.925,48.93,84.206,61.02,171.391,26.38,8.8,50.36,18.726,87.35,31.382q-43.08,12.672-86.15,25.346v1.207c19.71,8.23,33.62,14.58,61.02,26.554-29.54,5.873-40.96,7.859-71.79,14.484q-3,18.1-5.99,36.209c-14.11,73.469-33.74,134.4-58.63,194.325-82,197.477-213.94,344.187-440.326,397.1-107.774,25.19-254.965,10.65-349.392-13.28L398.5,1271.01c301.362-53.72,686.576-396.655,862.5-866.624C1133.81,652.9,709.687,1161.36,230.987,1197.38,174.03,1185.45,31.522,1074.16,8.429,1023.57q37.089-14.475,74.186-28.964C152.7,965.221,217.163,934.58,275.26,893.22l94.527-74.833-3.59-4.828c-21.831-10.432-46.15-38.144-61.024-56.728C253.2,691.894,185.8,628.954,178.339,520.262l75.383,13.277,151.962,16.9q-11.966-31.983-23.931-63.971c-9.464-30.685-11.774-65.157-11.966-101.386l67.007,24.14,147.175,39.83c15.722,4.749,69.252,24.525,80.169,20.519q1.2-3.018,2.393-6.035c-23.707-11.611-57.888-71.32-65.81-100.18-8.175-29.781-1.555-55.539-23.931-70-16.818-10.872-35.011-10.184-59.828-14.484C434.556,264.59,384.2,305.385,320.729,318.7c-47.233,9.9-99.9-72.839-93.331-107.422,8.163-10.423,30.6-25.241,44.272-28.967,18.155,32.4,26.724,87.505,67.007,96.558,32.177,7.232,61.477-15.71,82.562-24.139,66.152-26.448,186.3-32.125,221.361,26.553l3.59-2.414c-0.158-28.388,2.58-47.729-16.752-57.935-34.5-18.215-96.448.823-135.21-15.691-9.861-4.2-44.582-55.286-38.29-71.212C457.513,130.042,501.177,103.672,508.587,102.646Z"/>
</svg>
