<svg xmlns="http://www.w3.org/2000/svg" xmlns:xlink="http://www.w3.org/1999/xlink" width="1418" height="1417" viewBox="0 0 1418 1417">
  <defs>
    <style>
      .cls-1 {
        fill-rule: evenodd;
        fill: url(#linear-gradient);
      }
    </style>
    <linearGradient id="linear-gradient" x1="1061.259" y1="1320.31" x2="354.836" y2="96.75" gradientUnits="userSpaceOnUse">
      <stop offset="0" stop-color="#NaNNaNNaN"/>
      <stop offset="0.001" stop-color="#337f05"/>
      <stop offset="0.429" stop-color="#01297a"/>
      <stop offset="0.487" stop-color="#01297a" stop-opacity="0.988"/>
      <stop offset="0.513" stop-color="#01297a"/>
      <stop offset="0.683" stop-color="#01082f"/>
      <stop offset="1" stop-color="#01082f"/>
    </linearGradient>
  </defs>
  <path id="icon" class="cls-1" d="M505.677,96.764c0.876,26.72,15.264,62.05,36.247,69.469,45.39,16.049,124.381-7.083,149.82,28.032,16.251,22.431.781,75.5,6.041,108.47,5.556,34.816,12.963,62.282,27.79,86.532H729.2c54.29-72,192.871-149.087,329.851-120.658,25.5,5.294,52.1,8.568,71.28,20.719C1095.8,365.6,1035.06,433.86,979.3,490.424,806.324,665.916,602.256,804.005,358.274,908.46c-68.678,29.4-138.888,57.368-215.065,80.439C113.666,997.846,37.7,1018.71,1.146,1026.96c0,2.63,89.029-16.69,144.48-28.311,77.849-19.825,152.624-37.026,224.73-58.5,261.679-77.933,494.963-188.95,687.484-337.6,45.51-35.143,110.91-86.294,146.19-130.408q30.81-35.95,61.62-71.907c49.11,84.745,49.41,85.028,61.62,173.064,26.64,8.889,50.85,18.909,88.2,31.688q-43.485,12.8-86.99,25.594V631.8c19.91,8.31,33.95,14.722,61.62,26.813-29.83,5.93-41.36,7.936-72.49,14.625q-3.03,18.279-6.05,36.563c-14.24,74.186-34.07,135.709-59.2,196.221C1169.55,1105.43,1036.33,1253.57,807.734,1307c-108.826,25.43-257.453,10.75-352.8-13.41q-30.2-8.535-60.411-17.06c304.3-54.24,693.279-400.525,870.919-875.081-128.43,250.944-556.7,764.361-1040.071,800.731C167.855,1190.13,23.957,1077.76.638,1026.68l74.91-29.25c70.767-29.672,135.861-60.612,194.524-102.376l95.45-75.563-3.625-4.875c-22.044-10.534-46.6-38.517-61.619-57.282C247.8,691.763,179.741,628.209,172.207,518.456l76.118,13.406L401.77,548.925l-24.165-64.594c-9.556-30.985-11.888-65.794-12.082-102.377l67.661,24.376L581.8,446.549c15.875,4.8,69.927,24.764,80.951,20.719l2.416-6.094c-23.938-11.724-58.453-72.016-66.452-101.157-8.255-30.072-1.57-56.082-24.165-70.689-16.982-10.978-35.352-10.284-60.411-14.625-83.211-14.415-134.054,26.779-198.149,40.219-47.694,10-100.879-73.55-94.242-108.47,8.243-10.525,30.9-25.488,44.7-29.25,18.332,32.721,26.985,88.36,67.661,97.5,32.491,7.3,62.077-15.863,83.368-24.375C484.275,223.622,605.59,217.89,641,277.141l3.625-2.438c-0.159-28.666,2.605-48.195-16.916-58.5-34.84-18.393-97.388.831-136.529-15.844-9.957-4.242-45.017-55.826-38.664-71.907C454.106,124.427,498.2,97.8,505.677,96.764Z"/>
</svg>
